<?xml version="1.0" standalone="no"?>
<!DOCTYPE svg PUBLIC "-//W3C//DTD SVG 20010904//EN"
 "http://www.w3.org/TR/2001/REC-SVG-20010904/DTD/svg10.dtd">
<svg version="1.0" xmlns="http://www.w3.org/2000/svg"
 width="300.000000pt" height="139.000000pt" viewBox="0 0 300.000000 139.000000"
 preserveAspectRatio="xMidYMid meet">
<metadata>
Created by potrace 1.15, written by Peter Selinger 2001-2017
</metadata>
<g transform="translate(0.000000,139.000000) scale(0.100000,-0.100000)"
fill="#000000" stroke="none">
<path d="M2100 1354 c-181 -91 -366 -355 -378 -540 -7 -113 45 -240 142 -342
98 -105 233 -144 327 -97 36 19 128 103 161 149 23 32 28 35 28 18 0 -28 52
-86 96 -107 52 -24 78 -14 93 37 17 57 88 193 154 297 l54 83 7 -42 c13 -80
97 -129 140 -81 19 21 8 35 -18 25 -13 -5 -16 1 -16 31 0 31 9 46 55 94 58 61
67 87 37 114 -24 22 -86 47 -115 47 -29 0 -63 -34 -79 -80 -11 -34 -56 -110
-65 -110 -2 0 4 13 13 30 18 29 17 30 -6 55 -24 26 -87 59 -131 70 -25 6 -29
1 -89 -122 -34 -70 -77 -164 -96 -207 -32 -78 -33 -79 -45 -53 -16 35 -29 34
-65 -4 -84 -90 -218 -169 -284 -169 -87 0 -114 42 -114 175 0 76 5 102 30 166
74 186 261 382 415 435 23 8 44 12 47 10 10 -11 -55 -92 -151 -187 -110 -111
-174 -159 -211 -159 -39 0 -33 -31 14 -74 55 -49 80 -54 133 -23 93 55 290
300 316 394 13 45 2 70 -47 115 -49 45 -139 80 -217 85 -54 4 -68 1 -135 -33z"/>
<path d="M170 1013 c0 -5 20 -31 45 -60 l45 -51 -51 -22 c-64 -27 -144 -40
-181 -29 -48 13 -33 -14 20 -35 33 -14 80 -51 159 -130 62 -60 113 -107 113
-104 0 3 -13 32 -30 63 -16 31 -30 67 -30 79 0 40 73 86 138 86 l38 0 12 -58
c27 -130 120 -251 222 -289 l53 -20 -90 -7 -90 -7 -64 40 c-35 22 -66 38 -69
35 -5 -5 8 -17 74 -69 26 -20 28 -26 16 -39 -19 -23 -6 -30 31 -17 42 14 76
14 81 -1 3 -9 13 -8 39 4 35 17 184 42 304 53 141 12 175 17 175 25 0 5 -36 7
-83 3 l-82 -6 35 24 c48 34 89 105 103 178 11 57 14 62 34 56 12 -3 41 -24 64
-48 38 -40 40 -40 35 -15 l-6 27 69 -37 c73 -39 106 -37 56 2 -62 49 -80 66
-62 60 9 -3 17 -2 17 4 0 10 -138 56 -290 96 -105 28 -330 70 -430 81 -61 7
-68 10 -123 62 -32 31 -60 53 -63 50 -3 -3 7 -27 22 -53 l28 -47 -60 8 c-76 9
-107 23 -171 74 -29 23 -53 38 -53 34z m538 -240 c18 -4 22 -12 22 -42 0 -89
45 -159 94 -147 29 7 66 77 66 125 l0 33 47 -7 c25 -4 57 -11 71 -16 22 -8 23
-13 17 -47 -10 -58 -50 -117 -92 -138 -61 -30 -174 -26 -245 9 -79 39 -122 94
-152 196 l-16 54 83 -7 c45 -4 92 -9 105 -13z"/>
</g>
</svg>
